<svg xmlns="http://www.w3.org/2000/svg">
 

  <title>lincoln svg sprite</title>

  <symbol id="lshape" viewBox="0 0 34 47.9">
      <polygon points="0 0 0 47.9 34 47.9 34 37.9 9.9 37.9 9.9 0 0 0"/>
  </symbol>

  <symbol id="phone" viewBox="0 0 50 50">
  		<path d="M50,39.5a2.4,2.4,0,0,1-.7,2.1l-7,7a4,4,0,0,1-1.2.9l-1.5.5h-1l-3.3-.3A24.7,24.7,0,0,1,29.7,48a46.2,46.2,0,0,1-7.4-4.1,55.1,55.1,0,0,1-8.8-7.4,58,58,0,0,1-6.1-7,49.8,49.8,0,0,1-3.9-6.2,33.2,33.2,0,0,1-2.2-5.1,27.3,27.3,0,0,1-1-4A13.1,13.1,0,0,1,0,11.6V10.5A5.2,5.2,0,0,1,.5,9a4,4,0,0,1,.9-1.2l7-7A2.3,2.3,0,0,1,10.2,0a2,2,0,0,1,1.2.4,3.7,3.7,0,0,1,.9,1L18,12.1a2.6,2.6,0,0,1,.3,1.9,3.3,3.3,0,0,1-.9,1.7l-2.6,2.6-.2.3a1.3,1.3,0,0,0-.1.4,9.6,9.6,0,0,0,1,2.5,23.3,23.3,0,0,0,2,3.1,34.4,34.4,0,0,0,3.8,4.2,35.1,35.1,0,0,0,4.2,3.8,24.5,24.5,0,0,0,3.1,2l1.9.8h1l.3-.2,3-3.1a3.2,3.2,0,0,1,2.2-.8,2.8,2.8,0,0,1,1.4.3h.1l10.2,6A2.7,2.7,0,0,1,50,39.5Z"/>
  </symbol>
 
  <symbol id="arrow" viewBox="0 0 15 25.5">
  		<polygon points="4 25.5 0 22 8.1 12.7 0 3.4 4 0 15 12.7 4 25.5"/>
  </symbol>

  <symbol id="plus" viewBox="0 0 12 12">
  		<polygon points="12 4.6 7.4 4.6 7.4 0 4.6 0 4.6 4.6 0 4.6 0 7.4 4.6 7.4 4.6 12 7.4 12 7.4 7.4 12 7.4 12 4.6"/>
  </symbol>

  <symbol id="minus" viewBox="0 0 12 3">
  		<rect width="12" height="3"/>
  </symbol>

  <symbol id="circlechk" viewBox="0 0 20 20">
  		<path d="M10,0A10,10,0,1,0,20,10,10,10,0,0,0,10,0ZM8.3,14.3,4.5,10.6,6,9.2l2.3,2.3L14,5.7l1.4,1.4Z"/>
  </symbol>

  <symbol id="chk" viewBox="0 0 20.7 17">
  	<polygon points="6.7 17 0 10.3 3 7.4 6.7 11.1 17.7 0 20.7 3 6.7 17"/>
  </symbol>

  <symbol id="campuses" viewBox="0 0 53.5 48.6">
  		<path class="74ba638d-ea14-4962-9379-2a1a028fa962" d="M49.1,48.7H4.4a2.9,2.9,0,0,1-2.9-2.9v-.7a2.9,2.9,0,0,1,2.9-2.9h.2V21.3H3.4A3.4,3.4,0,0,1,0,17.9v-.7a3.4,3.4,0,0,1,1.7-2.9L25,.5a3.4,3.4,0,0,1,3.4,0L51.9,14.3a3.4,3.4,0,0,1,1.7,2.9v.7a3.4,3.4,0,0,1-3.4,3.4H49V42.2h.2A2.9,2.9,0,0,1,52,45.1v.7A2.9,2.9,0,0,1,49.1,48.7ZM4.4,44.1a1,1,0,0,0-1,1v.7a1,1,0,0,0,1,1H49.1a1,1,0,0,0,1-1v-.7a1,1,0,0,0-1-1H47.1V19.4h3.1a1.5,1.5,0,0,0,1.5-1.5v-.7a1.5,1.5,0,0,0-.7-1.3L27.5,2.2a1.5,1.5,0,0,0-1.5,0L2.6,15.9a1.5,1.5,0,0,0-.7,1.3v.7a1.5,1.5,0,0,0,1.5,1.5H6.5V44.1Zm38.5-4.6h-8V19.4h8Zm-6.1-1.9H41V21.3H36.8Zm-6.1,1.9h-8V19.4h8Zm-6.1-1.9h4.2V21.3H24.7Zm-6.1,1.9h-8V19.4h8Zm-6.1-1.9h4.2V21.3H12.5ZM26.8,16a4.8,4.8,0,1,1,.5,0Zm0-7.6h-.3a2.9,2.9,0,0,0,.6,5.7h0a2.9,2.9,0,0,0,1.7-4.9A2.9,2.9,0,0,0,26.8,8.4Z"/>
  </symbol>

  <symbol id="books" viewBox="0 0 50.5 40.2">
  		<path class="c83c4102-8f01-424e-9b14-416e7ebd4124" d="M51.4,4,3.1,4.4a1.1,1.1,0,0,0,0,2.2H4.3v9.9a2.5,2.5,0,1,0,2.2,0V6.5h6v8.4a2.2,2.2,0,0,0,2.2,2.2H40.1a2.2,2.2,0,0,0,2.2-2.2V6.2h9.1a1.1,1.1,0,0,0,1.1-1.1A1.1,1.1,0,0,0,51.4,4ZM40.1,14.9H14.7V6.5l25.4-.2Z" transform="translate(-2 -4)"/><path class="c83c4102-8f01-424e-9b14-416e7ebd4124" d="M48.3,20.7a1.1,1.1,0,1,0,0-2.2H19.4a4.4,4.4,0,0,0-4.4,4.4v2.2a4.4,4.4,0,0,0,4.4,4.4H48.3a1.1,1.1,0,0,0,0-2.2H46.1V20.7ZM44,27.3H19.4a2.2,2.2,0,0,1-2.2-2.2V22.9a2.2,2.2,0,0,1,2.2-2.2H44Z" transform="translate(-2 -4)"/><path class="c83c4102-8f01-424e-9b14-416e7ebd4124" d="M42.9,33.6a1.1,1.1,0,1,0,0-2.2H8.7a4.4,4.4,0,0,0-4.4,4.4v4a4.4,4.4,0,0,0,4.4,4.4H42.9a1.1,1.1,0,1,0,0-2.2H40V33.6ZM37.8,42H8.7a2.2,2.2,0,0,1-2.2-2.2v-4a2.2,2.2,0,0,1,2.2-2.2H37.8Z" transform="translate(-2 -4)"/>
  </symbol>

  <symbol id="clipboard" viewBox="0 0 37.9 48.6">
  		<path d="M42.3,3.8H36.1a1.5,1.5,0,0,0-1.5-1.5H30.8A2.2,2.2,0,0,0,28.6,0h-3a2.2,2.2,0,0,0-2.2,2.2H19.4A1.5,1.5,0,0,0,18,3.8H11.8A3.8,3.8,0,0,0,8.1,7.6V44.8a3.8,3.8,0,0,0,3.8,3.8H42.3A3.8,3.8,0,0,0,46,44.8V7.6A3.8,3.8,0,0,0,42.3,3.8ZM35.4,8.3h6.1V44.1h-29V8.3h6.2a3.8,3.8,0,0,0,3,1.5H32.4a3.8,3.8,0,0,0,3-1.5Zm-10.7-6a.8.8,0,0,1,.8-.8h3a.8.8,0,0,1,.8.8H24.7ZM19.4,3.8H34.7v.8h0V6a2.3,2.3,0,0,1-2.3,2.3H21.7A2.3,2.3,0,0,1,19.4,6ZM44.6,44.8a2.3,2.3,0,0,1-2.3,2.3H11.8a2.3,2.3,0,0,1-2.3-2.3V7.6a2.3,2.3,0,0,1,2.3-2.3H18V6a3.8,3.8,0,0,0,.1.8H12.6a1.5,1.5,0,0,0-1.5,1.5V44.1a1.5,1.5,0,0,0,1.5,1.5H41.5A1.5,1.5,0,0,0,43,44.1V8.3a1.5,1.5,0,0,0-1.5-1.5H36a3.7,3.7,0,0,0,.1-.8V5.2h6.1a2.3,2.3,0,0,1,2.3,2.3Z" transform="translate(-8.1)"/><path d="M16.5,20.4h5.9a.8.8,0,0,0,.8-.8V13.7a.8.8,0,0,0-.8-.8H16.5a.8.8,0,0,0-.8.8v5.9A.8.8,0,0,0,16.5,20.4Zm.6-6.1h4.7V19H17.1Z" transform="translate(-8.1)"/><path d="M22.4,32.7H16.5a.8.8,0,0,0-.8.8v5.9a.8.8,0,0,0,.8.8h5.9a.8.8,0,0,0,.8-.8V33.5A.8.8,0,0,0,22.4,32.7Zm-.6,6.1H17.1V34.1h4.7Z" transform="translate(-8.1)"/><path d="M23.5,23l-.5.5a1.5,1.5,0,0,0-1.3-.7H17.1a1.5,1.5,0,0,0-1.5,1.5v4.6a1.5,1.5,0,0,0,1.5,1.5h4.6a1.5,1.5,0,0,0,1.5-1.5v-.8a.7.7,0,1,0-1.4,0v.8H17.1V24.3h4.7v.5l-1.6,1.6-1-1a.7.7,0,0,0-1,1l1.5,1.5.5.2.5-.2L23,25.6h0L24.5,24a.7.7,0,1,0-1-1Z" transform="translate(-8.1)"/><path d="M25.5,15.1h2.3a.7.7,0,0,0,0-1.4H25.5a.7.7,0,0,0,0,1.4Z" transform="translate(-8.1)"/><path d="M24.8,17.4a.7.7,0,0,0,.7.7H36.9a.7.7,0,1,0,0-1.4H25.5A.7.7,0,0,0,24.8,17.4Z" transform="translate(-8.1)"/><path d="M25.5,25.8h7.6a.7.7,0,1,0,0-1.4H25.5a.7.7,0,1,0,0,1.4Z" transform="translate(-8.1)"/><path d="M36.9,27.4H25.5a.7.7,0,0,0,0,1.4H36.9a.7.7,0,0,0,0-1.4Z" transform="translate(-8.1)"/><path d="M25.5,35.7h3a.7.7,0,0,0,0-1.4h-3a.7.7,0,0,0,0,1.4Z" transform="translate(-8.1)"/><path d="M36.9,37.3H25.5a.7.7,0,1,0,0,1.4H36.9a.7.7,0,0,0,0-1.4Z" transform="translate(-8.1)"/>
  </symbol>



  <symbol id="bgptrn2" viewBox="0 0 112 112">
  		<circle class="a4df8947-72f7-47db-8a03-bd3e634e555b" cx="56" cy="56" r="4"/><path class="a4df8947-72f7-47db-8a03-bd3e634e555b" d="M0,0H4A4,4,0,0,1,2.83,2.83,4,4,0,0,1,0,4Z"/><path class="a4df8947-72f7-47db-8a03-bd3e634e555b" d="M112,0V4a4,4,0,0,1-2.83-1.17A4,4,0,0,1,108,0Z"/><path class="a4df8947-72f7-47db-8a03-bd3e634e555b" d="M112,112h-4a4,4,0,0,1,4-4Z"/><path class="a4df8947-72f7-47db-8a03-bd3e634e555b" d="M0,112v-4a4,4,0,0,1,2.83,1.17A4,4,0,0,1,4,112Z"/><g class="45bba09e-1acd-438e-a3c6-2a11daecf09d"><path class="a4df8947-72f7-47db-8a03-bd3e634e555b" d="M7,8a1,1,0,0,1-.71-.29,1,1,0,0,1,0-1.43,1,1,0,0,1,1.4,0l0,0A1,1,0,0,1,7,8Z"/><path class="a4df8947-72f7-47db-8a03-bd3e634e555b" d="M43.93,44.93a1,1,0,0,1-.71-.29,1,1,0,0,1,0-1.45,1,1,0,0,1,1.38,0l.07.07a1,1,0,0,1-.71,1.71Zm-4.1-4.1a1,1,0,0,1-.71-.29,1,1,0,0,1,0-1.45,1,1,0,0,1,1.38,0l.07.07a1,1,0,0,1-.71,1.71Zm-4.1-4.1a1,1,0,0,1-.71-.29A1,1,0,0,1,35,35a1,1,0,0,1,1.38,0l.07.07a1,1,0,0,1-.71,1.71Zm-4.1-4.1a1,1,0,0,1-.71-.29,1,1,0,0,1,0-1.45,1,1,0,0,1,1.38,0l.07.07a1,1,0,0,1-.71,1.71Zm-4.1-4.1a1,1,0,0,1-.71-.29,1,1,0,0,1,0-1.45,1,1,0,0,1,1.38,0l.07.07a1,1,0,0,1-.71,1.71Zm-4.1-4.1a1,1,0,0,1-.71-.29,1,1,0,0,1,0-1.45,1,1,0,0,1,1.38,0l.07.07a1,1,0,0,1-.71,1.71Zm-4.1-4.1a1,1,0,0,1-.71-.29,1,1,0,0,1,0-1.45,1,1,0,0,1,1.38,0l.07.07a1,1,0,0,1-.71,1.71Zm-4.1-4.1a1,1,0,0,1-.71-.29,1,1,0,0,1,0-1.45,1,1,0,0,1,1.38,0l.07.07a1,1,0,0,1-.71,1.71Zm-4.1-4.1a1,1,0,0,1-.71-.29,1,1,0,0,1,0-1.45,1,1,0,0,1,1.38,0l.07.07a1,1,0,0,1-.71,1.71Z"/><path class="a4df8947-72f7-47db-8a03-bd3e634e555b" d="M48,49a1,1,0,0,1-.71-.29,1,1,0,0,1,0-1.43,1,1,0,0,1,1.4,0l0,0A1,1,0,0,1,48,49Z"/><path class="a4df8947-72f7-47db-8a03-bd3e634e555b" d="M105,8a1,1,0,0,1-.71-1.71,1,1,0,0,1,1.43,0,1,1,0,0,1,0,1.4l0,0A1,1,0,0,1,105,8Z"/><path class="a4df8947-72f7-47db-8a03-bd3e634e555b" d="M68.07,44.93a1,1,0,0,1-.71-1.71,1,1,0,0,1,1.45,0,1,1,0,0,1,0,1.38l-.07.07A1,1,0,0,1,68.07,44.93Zm4.1-4.1a1,1,0,0,1-.71-1.71,1,1,0,0,1,1.45,0,1,1,0,0,1,0,1.38l-.07.07A1,1,0,0,1,72.17,40.83Zm4.1-4.1A1,1,0,0,1,75.56,35,1,1,0,0,1,77,35a1,1,0,0,1,0,1.38l-.07.07A1,1,0,0,1,76.27,36.73Zm4.1-4.1a1,1,0,0,1-.71-1.71,1,1,0,0,1,1.45,0,1,1,0,0,1,0,1.38l-.07.07A1,1,0,0,1,80.37,32.63Zm4.1-4.1a1,1,0,0,1-.71-1.71,1,1,0,0,1,1.45,0,1,1,0,0,1,0,1.38l-.07.07A1,1,0,0,1,84.47,28.53Zm4.1-4.1a1,1,0,0,1-.71-1.71,1,1,0,0,1,1.45,0,1,1,0,0,1,0,1.38l-.07.07A1,1,0,0,1,88.57,24.43Zm4.1-4.1A1,1,0,0,1,92,18.63a1,1,0,0,1,1.45,0,1,1,0,0,1,0,1.38l-.07.07A1,1,0,0,1,92.67,20.33Zm4.1-4.1a1,1,0,0,1-.71-1.71,1,1,0,0,1,1.45,0,1,1,0,0,1,0,1.38l-.07.07A1,1,0,0,1,96.77,16.23Zm4.1-4.1a1,1,0,0,1-.71-1.71,1,1,0,0,1,1.45,0,1,1,0,0,1,0,1.38l-.07.07A1,1,0,0,1,100.86,12.14Z"/><path class="a4df8947-72f7-47db-8a03-bd3e634e555b" d="M64,49a1,1,0,0,1-.71-1.71,1,1,0,0,1,1.43,0,1,1,0,0,1,0,1.4l0,0A1,1,0,0,1,64,49Z"/><path class="a4df8947-72f7-47db-8a03-bd3e634e555b" d="M105,106a1,1,0,0,1-.68-.28l0,0a1,1,0,0,1,1.41-1.41A1,1,0,0,1,105,106Z"/><path class="a4df8947-72f7-47db-8a03-bd3e634e555b" d="M100.88,101.92a.92.92,0,0,1-.66-.28l-.07-.07a1,1,0,0,1,1.41-1.41,1,1,0,0,1,0,1.45A1,1,0,0,1,100.88,101.92Zm-4.1-4.1a.92.92,0,0,1-.66-.28l-.07-.07a1,1,0,0,1,1.41-1.41,1,1,0,0,1,0,1.45A1,1,0,0,1,96.78,97.82Zm-4.1-4.1a.92.92,0,0,1-.66-.28L92,93.37A1,1,0,0,1,93.37,92a1,1,0,0,1,0,1.45A1,1,0,0,1,92.68,93.72Zm-4.1-4.1a.92.92,0,0,1-.66-.28l-.07-.07a1,1,0,0,1,1.41-1.41,1,1,0,0,1,0,1.45A1,1,0,0,1,88.58,89.62Zm-4.1-4.1a.92.92,0,0,1-.66-.28l-.07-.07a1,1,0,0,1,1.41-1.41,1,1,0,0,1,0,1.45A1,1,0,0,1,84.48,85.52Zm-4.1-4.1a.92.92,0,0,1-.66-.28l-.07-.07a1,1,0,0,1,1.41-1.41,1,1,0,0,1,0,1.45A1,1,0,0,1,80.39,81.42Zm-4.1-4.1a.92.92,0,0,1-.66-.28L75.56,77A1,1,0,0,1,77,75.56,1,1,0,0,1,77,77,1,1,0,0,1,76.29,77.32Zm-4.1-4.1a.92.92,0,0,1-.66-.28l-.07-.07a1,1,0,0,1,1.41-1.41,1,1,0,0,1,0,1.45A1,1,0,0,1,72.19,73.22Zm-4.1-4.1a.92.92,0,0,1-.66-.28l-.07-.07a1,1,0,0,1,1.41-1.41,1,1,0,0,1,0,1.45A1,1,0,0,1,68.09,69.12Z"/><path class="a4df8947-72f7-47db-8a03-bd3e634e555b" d="M64,65a1,1,0,0,1-.68-.28l0,0a1,1,0,0,1,1.41-1.41A1,1,0,0,1,64,65Z"/><path class="a4df8947-72f7-47db-8a03-bd3e634e555b" d="M7,106a1,1,0,0,1-.72-1.68l0,0a1,1,0,0,1,1.41,1.41A1,1,0,0,1,7,106Z"/><path class="a4df8947-72f7-47db-8a03-bd3e634e555b" d="M11.08,101.88a1,1,0,0,1-.72-1.66l.07-.07a1,1,0,0,1,1.41,1.41A1.08,1.08,0,0,1,11.08,101.88Zm4.1-4.1a1,1,0,0,1-.72-1.66l.07-.07a1,1,0,0,1,1.41,1.41A1.08,1.08,0,0,1,15.18,97.78Zm4.1-4.1A1,1,0,0,1,18.56,92l.07-.07A1,1,0,0,1,20,93.37,1.08,1.08,0,0,1,19.28,93.68Zm4.1-4.1a1,1,0,0,1-.72-1.66l.07-.07a1,1,0,0,1,1.41,1.41A1.08,1.08,0,0,1,23.38,89.58Zm4.1-4.1a1,1,0,0,1-.72-1.66l.07-.07a1,1,0,0,1,1.41,1.41A1.08,1.08,0,0,1,27.48,85.48Zm4.1-4.1a1,1,0,0,1-.72-1.66l.07-.07a1,1,0,0,1,1.41,1.41A1.08,1.08,0,0,1,31.58,81.38Zm4.1-4.1A1,1,0,0,1,35,75.63l.07-.07A1,1,0,0,1,36.44,77,1.08,1.08,0,0,1,35.68,77.28Zm4.1-4.1a1,1,0,0,1-.72-1.66l.07-.07a1,1,0,0,1,1.41,1.41A1.08,1.08,0,0,1,39.78,73.18Zm4.1-4.1a1,1,0,0,1-.72-1.66l.07-.07a1,1,0,0,1,1.41,1.41A1.08,1.08,0,0,1,43.88,69.08Z"/><path class="a4df8947-72f7-47db-8a03-bd3e634e555b" d="M48,65a1,1,0,0,1-.72-1.68l0,0a1,1,0,0,1,1.41,1.41A1,1,0,0,1,48,65Z"/></g>
  </symbol>


 <symbol id="instagram" viewBox="0 0 30 30">
 	<path class="5da34a69-32ec-42cc-a385-94c74af3ebdc" d="M15,4.3h5.3a7.2,7.2,0,0,1,2.4.4,4.3,4.3,0,0,1,2.5,2.5,7.2,7.2,0,0,1,.4,2.4c.1,1.4.1,1.8.1,5.3s0,3.9-.1,5.3a7.2,7.2,0,0,1-.4,2.4,4.3,4.3,0,0,1-2.5,2.5,7.2,7.2,0,0,1-2.4.4H9.7a7.2,7.2,0,0,1-2.4-.4,4.3,4.3,0,0,1-2.5-2.5,7.2,7.2,0,0,1-.4-2.4c-.1-1.4-.1-1.8-.1-5.3s0-3.9.1-5.3a7.2,7.2,0,0,1,.4-2.4A4.3,4.3,0,0,1,7.3,4.9a7.2,7.2,0,0,1,2.4-.4H15M15,2H9.6a9.5,9.5,0,0,0-3.2.6A6.6,6.6,0,0,0,2.7,6.5a9.5,9.5,0,0,0-.6,3.2C2,11,2,11.5,2,15s0,4,.1,5.4a9.5,9.5,0,0,0,.6,3.2,6.6,6.6,0,0,0,3.8,3.8,9.5,9.5,0,0,0,3.2.6H20.4a9.5,9.5,0,0,0,3.2-.6,6.6,6.6,0,0,0,3.8-3.8,9.5,9.5,0,0,0,.6-3.2c.1-1.4.1-1.8.1-5.4s0-4-.1-5.4a9.5,9.5,0,0,0-.6-3.2,6.6,6.6,0,0,0-3.8-3.8,9.5,9.5,0,0,0-3.2-.6Z"/><path class="5da34a69-32ec-42cc-a385-94c74af3ebdc" d="M15,8.3A6.7,6.7,0,1,0,21.7,15,6.7,6.7,0,0,0,15,8.3Zm0,11A4.3,4.3,0,1,1,19.3,15,4.3,4.3,0,0,1,15,19.3Z"/><circle class="5da34a69-32ec-42cc-a385-94c74af3ebdc" cx="21.9" cy="8.1" r="1.6"/>
 </symbol>

 <symbol id="twitter" viewBox="0 0 30 30">
 	<path d="M28.9,6.4a11.3,11.3,0,0,1-3.3.9,5.7,5.7,0,0,0,2.5-3.1,11.4,11.4,0,0,1-3.6,1.4,5.7,5.7,0,0,0-9.8,3.9,5.7,5.7,0,0,0,.1,1.3A16.1,16.1,0,0,1,3.1,4.8a5.7,5.7,0,0,0,1.8,7.6,5.7,5.7,0,0,1-2.6-.7h0a5.7,5.7,0,0,0,4.6,5.6l-1.5.2H4.3a5.7,5.7,0,0,0,5.3,3.9,11.4,11.4,0,0,1-7.1,2.4H1.1a16.1,16.1,0,0,0,8.7,2.6C20.3,26.3,26,17.6,26,10.1q0-.4,0-.7A11.6,11.6,0,0,0,28.9,6.4Z"/>
 </symbol>

 <symbol id="facebook" viewBox="0 0 30 30">
 	<path d="M17.2,29.4V16.3h4.4l.7-5.1H17.2V7.9c0-1.5.4-2.5,2.5-2.5h2.7V.8l-4-.2C14.6.6,11.9,3,11.9,7.3v3.8H7.5v5.1h4.4V29.4Z"/>
 </symbol>

  <symbol id="googleplus" viewBox="0 0 30 30">
 	<path class="da57f481-6940-408b-a979-886f858e788a" d="M9.5,13.6v3.3H15A5.2,5.2,0,0,1,9.5,21,6,6,0,0,1,9.5,9a5.4,5.4,0,0,1,3.8,1.5l2.6-2.5A9.1,9.1,0,0,0,9.5,5.5a9.5,9.5,0,1,0,0,19.1c5.5,0,9.2-3.9,9.2-9.3a8.8,8.8,0,0,0-.2-1.6Z"/><path class="da57f481-6940-408b-a979-886f858e788a" d="M30,13.6H27.3V10.9H24.5v2.7H21.8v2.7h2.7v2.7h2.7V16.4H30"/>
 </symbol>

 <symbol id="play" viewBox="0 0 40 48">
    <path d="M38.6,21.4,4.6.4A3,3,0,0,0,0,3V45a3,3,0,0,0,4.6,2.6l34-21A3,3,0,0,0,38.6,21.4Z"/>
 </symbol>

 <symbol id="caret" viewBox="0 0 80 25">
    <path d="M0,0,32.6,22.7a12.9,12.9,0,0,0,14.7,0L80,0Z"/>
 </symbol>

 <symbol id="rfibg" viewBox="0 0 4 4">
  <rect width="2" height="1" style="fill:#4c4c4c"/><rect x="2" width="2" height="1" style="fill:#2c2c2c"/><rect y="1" width="2" height="1" style="fill:#2c2c2c"/><rect x="2" y="1" width="2" height="1" style="fill:#1d1d1d"/><rect y="2" width="2" height="1" style="fill:#2c2c2c"/><rect x="2" y="2" width="2" height="1" style="fill:#4c4c4c"/><rect y="3" width="2" height="1" style="fill:#1d1d1d"/><rect x="2" y="3" width="2" height="1" style="fill:#2c2c2c"/>
 </symbol>

 <symbol id="herobg" viewBox="0 0 4 4">
  <rect width="1" height="1" style="opacity:0.35000000000000003"/><rect x="3" width="1" height="1" style="opacity:0.29"/><polygon points="2 0 1 0 1 1 0 1 0 2 0 3 1 3 1 2 2 2 2 1 3 1 3 0 2 0" style="opacity:0.18"/><rect y="3" width="1" height="1" style="opacity:0.23"/><polygon points="3 1 2 1 2 2 1 2 1 3 1 4 2 4 3 4 3 3 4 3 4 2 4 1 3 1" style="opacity:0.1"/><rect x="3" y="3" width="1" height="1" style="opacity:0.35000000000000003"/>
 </symbol>

 <symbol id="chat" viewBox="0 0 24 19">
  <polygon points="22 14 23 19 19 16 22 14"/><path d="M16,3h-.1a7.2,7.2,0,0,1,1.2,4c0,3.8-3,6.9-7,7.8A8.5,8.5,0,0,0,16,17c4.4,0,8-3.1,8-7S20.4,3,16,3Z"/><ellipse cx="8" cy="7" rx="8" ry="7"/><polygon points="3 11 2 16 6 13 3 11"/>
 </symbol>

<symbol id="borderarr" viewBox="0 0 88.2 42.5">
 <defs><style>.a{fill:#fff;}.b{fill:#cccccc;}</style></defs><title>Untitled-1</title><polyline class="a" points="88.2 0 44.3 42 0 0"/><path class="b" d="M44.3,44a2,2,0,0,1-1.4-.5L2.1,4.8H7.8L44.3,39.3,80.7,4.6h5.8L45.7,43.5A2,2,0,0,1,44.3,44Z"/>
</symbol>

<symbol id="validIcon" viewBox="0 0 70 70" width="70" height="70">
    <path class="a" d="M27.9,54.6a5,5,0,0,1-3.5-8.5L52.6,17.8a5,5,0,0,1,7.1,7.1L31.4,53.2A5,5,0,0,1,27.9,54.6Z" transform="translate(-8.9 -16.4)"/><path class="a" d="M27.9,54.6a5,5,0,0,1-3.3-1.2l-14-12.3a5,5,0,0,1,6.6-7.5l14,12.3a5,5,0,0,1-3.3,8.8Z" transform="translate(-8.9 -16.4)"/>
</symbol>

<symbol id="inValidIcon" viewBox="0 0 70 70" width="70" height="70">
    <path class="a" d="M20.9,55.2a5,5,0,0,1-3.5-8.5L45.6,18.4a5,5,0,0,1,7.1,7.1L24.4,53.8A5,5,0,0,1,20.9,55.2Z" transform="translate(-15.9 -16.9)"/><path class="a" d="M49.2,55.2a5,5,0,0,1-3.5-1.5L17.4,25.5a5,5,0,0,1,7.1-7.1L52.7,46.7a5,5,0,0,1-3.5,8.5Z" transform="translate(-15.9 -16.9)"/>
</symbol>
  
</svg>

	